# xmcd CD database file
#
# Track frame offsets:
#	150
#	33860
#	60626
#	84991
#	117780
#	145065
#	173777
#	199793
#	219773
#	241657
#
# Disc length: 3563 seconds
#
# Revision: 0
# Processed by: cddbd v1.5.2PL0 Copyright (c) Steve Scherf et al.
# Submitted via: CDex 1.51
#
DISCID=770de90a
DTITLE=Miles Davis - The Very Best of the Miles Davis Quintet
DYEAR=2012
DGENRE=Jazz
TTITLE0=Just Squeeze Me
TTITLE1=Oleo
TTITLE2='Round Midnight
TTITLE3=Four
TTITLE4=My Funny Valentine
TTITLE5=Well, You Needn't
TTITLE6=In Your Own Sweet Way
TTITLE7=Airegin
TTITLE8=You're My Everything
TTITLE9=Tune Up
EXTD=YEAR: 2012
EXTT0=
EXTT1=
EXTT2=
EXTT3=
EXTT4=
EXTT5=
EXTT6=
EXTT7=
EXTT8=
EXTT9=
PLAYORDER=
